# xmcd
#
# Track frame offsets:
#	150
#	16093
#	28216
#	47799
#	62987
#	75430
#	91461
#	105623
#	121957
#	135915
#	148974
#	161207
#
# Disc length: 2338 seconds
#
# Revision: 0
# Processed by: cddbd v1.5.2PL0 Copyright (c) Steve Scherf et al.
# Submitted via: audiograbber 1.83.01
#
DISCID=a009200c
DTITLE=ANTONIO AGUILAR - EXITOS
DYEAR=1900
DGENRE=KARAOKE
TTITLE0=TRISTE RECUERDO
TTITLE1=CUATRO MESES
TTITLE2=ME PIDEN
TTITLE3=ALBUR DE AMOR
TTITLE4=NOCHES ETERNAS
TTITLE5=UN PUNO DE TIERRA
TTITLE6=CANCION MIXTECA
TTITLE7=EL HIJO DESOBEDIENTE
TTITLE8=HACE UN ANO
TTITLE9=NI EL DINERO NI NADA
TTITLE10=PA QUE SON PASIONES
TTITLE11=TU TRAICION
EXTD=
EXTT0=
EXTT1=
EXTT2=
EXTT3=
EXTT4=
EXTT5=
EXTT6=
EXTT7=
EXTT8=
EXTT9=
EXTT10=
EXTT11=
PLAYORDER=
